<svg width="20" height="20" viewBox="0 0 20 20" fill="none" xmlns="http://www.w3.org/2000/svg">
<path d="M10.1667 9.33333V9.83333H10.6667H16.6667C16.7109 9.83333 16.7533 9.85089 16.7845 9.88215C16.8158 9.9134 16.8333 9.95579 16.8333 10C16.8333 10.0442 16.8158 10.0866 16.7845 10.1178C16.7533 10.1491 16.7109 10.1667 16.6667 10.1667H10C9.95579 10.1667 9.9134 10.1491 9.88215 10.1178C9.85089 10.0866 9.83333 10.0442 9.83333 10V3.33333C9.83333 3.28913 9.85089 3.24674 9.88215 3.21548C9.9134 3.18423 9.9558 3.16667 10 3.16667C10.0442 3.16667 10.0866 3.18423 10.1178 3.21548C10.1491 3.24674 10.1667 3.28913 10.1667 3.33333V9.33333ZM4.72209 2.10104C6.28435 1.05717 8.12108 0.5 10 0.5C12.5196 0.5 14.9359 1.50089 16.7175 3.28248C18.4991 5.06408 19.5 7.48044 19.5 10C19.5 11.8789 18.9428 13.7156 17.899 15.2779C16.8551 16.8402 15.3714 18.0578 13.6355 18.7769C11.8996 19.4959 9.98946 19.684 8.14664 19.3175C6.30383 18.9509 4.61109 18.0461 3.28249 16.7175C1.95389 15.3889 1.0491 13.6962 0.682544 11.8534C0.315985 10.0105 0.504117 8.1004 1.22315 6.36451C1.94218 4.62861 3.15982 3.14491 4.72209 2.10104ZM4.90728 17.6218C6.41473 18.629 8.18701 19.1667 10 19.1667C12.4312 19.1667 14.7627 18.2009 16.4818 16.4818C18.2009 14.7627 19.1667 12.4311 19.1667 10C19.1667 8.187 18.629 6.41472 17.6218 4.90727C16.6146 3.39982 15.1829 2.22491 13.5079 1.5311C11.8329 0.837301 9.98983 0.65577 8.21167 1.00947C6.43352 1.36317 4.80017 2.23621 3.51819 3.51819C2.23621 4.80017 1.36317 6.43351 1.00947 8.21167C0.655774 9.98983 0.837305 11.8329 1.53111 13.5079C2.22491 15.1829 3.39983 16.6146 4.90728 17.6218Z" fill="#F2F2EF" stroke="#97A866"/>
</svg>
