<svg width="21" height="21" viewBox="0 0 21 21" fill="none" xmlns="http://www.w3.org/2000/svg">
<path fill-rule="evenodd" clip-rule="evenodd" d="M19.1212 0H1.11288C0.498252 0 0 0.497813 0 1.1119V19.1044C0 19.3993 0.117249 19.6821 0.325954 19.8906C0.534659 20.0992 0.817723 20.2163 1.11288 20.2163H10.805V12.3825H8.17458V9.35005H10.805V7.07571C10.6947 5.99486 11.0682 4.92056 11.8253 4.14072C12.5824 3.36087 13.6458 2.95521 14.7304 3.03245C15.5179 3.02761 16.3049 3.0681 17.0877 3.15374V5.88295H15.4791C14.2044 5.88295 13.9615 6.48944 13.9615 7.36885V9.31972H16.9967L16.6021 12.3522H13.9615V20.2163H19.1212C19.4164 20.2163 19.6995 20.0992 19.9082 19.8906C20.1169 19.6821 20.2341 19.3993 20.2341 19.1044V1.1119C20.2341 0.817004 20.1169 0.534188 19.9082 0.325667C19.6995 0.117146 19.4164 0 19.1212 0Z" fill="#F2F2EF"/>
</svg>
