<svg width="13" height="16" viewBox="0 0 13 16" fill="none" xmlns="http://www.w3.org/2000/svg">
<path d="M2.625 4.25C3.45343 4.25 4.125 3.57843 4.125 2.75C4.125 1.92157 3.45343 1.25 2.625 1.25C1.79657 1.25 1.125 1.92157 1.125 2.75C1.125 3.57843 1.79657 4.25 2.625 4.25Z" stroke="#97A866" stroke-width="1.2" stroke-linecap="round" stroke-linejoin="round"/>
<path d="M9.375 4.25C10.2034 4.25 10.875 3.57843 10.875 2.75C10.875 1.92157 10.2034 1.25 9.375 1.25C8.54657 1.25 7.875 1.92157 7.875 2.75C7.875 3.57843 8.54657 4.25 9.375 4.25Z" stroke="#97A866" stroke-width="1.2" stroke-linecap="round" stroke-linejoin="round"/>
<path d="M0.75 6.5H4.5L3.75 14.75H1.5L0.75 6.5ZM7.5 6.5H11.25L12 10.625H10.875L10.5 14.75H8.25L7.875 10.625H6.75L7.5 6.5Z" stroke="#97A866" stroke-width="1.2" stroke-linecap="round" stroke-linejoin="round"/>
</svg>
