<svg width="22" height="22" viewBox="0 0 22 22" fill="none" xmlns="http://www.w3.org/2000/svg">
<path fill-rule="evenodd" clip-rule="evenodd" d="M16.1662 3.64315C15.6547 3.64315 15.1936 3.95099 14.9978 4.42314C14.8021 4.89528 14.9103 5.43875 15.272 5.80011C15.6337 6.16147 16.1776 6.26958 16.6502 6.07401C17.1227 5.87844 17.4308 5.41771 17.4308 4.90667C17.4308 4.20884 16.8647 3.64315 16.1662 3.64315ZM21.014 6.19125C20.9935 5.31763 20.8297 4.45328 20.5292 3.63262C20.2612 2.93045 19.8442 2.29463 19.3067 1.76893C18.7849 1.22922 18.147 0.815156 17.4414 0.558055C16.6222 0.248662 15.7561 0.081297 14.8805 0.063176C13.7634 0 13.4051 0 10.5386 0C7.6721 0 7.31379 0 6.1967 0.063176C5.3211 0.081297 4.45503 0.248662 3.63582 0.558055C2.9315 0.817759 2.29418 1.23147 1.77049 1.76893C1.2303 2.29032 0.815874 2.92762 0.558546 3.63262C0.24888 4.45111 0.0813686 5.31642 0.0632316 6.19125C0 7.30735 0 7.66535 0 10.5293C0 13.3933 0 13.7513 0.0632316 14.8674C0.0813686 15.7422 0.24888 16.6076 0.558546 17.426C0.815874 18.131 1.2303 18.7683 1.77049 19.2897C2.29418 19.8272 2.9315 20.2409 3.63582 20.5006C4.45503 20.81 5.3211 20.9774 6.1967 20.9955C7.31379 21.0587 7.6721 21.0587 10.5386 21.0587C13.4051 21.0587 13.7634 21.0587 14.8805 20.9955C15.7561 20.9774 16.6222 20.81 17.4414 20.5006C18.147 20.2435 18.7849 19.8294 19.3067 19.2897C19.8466 18.766 20.264 18.1296 20.5292 17.426C20.8297 16.6054 20.9935 15.741 21.014 14.8674C21.014 13.7513 21.0772 13.3933 21.0772 10.5293C21.0772 7.66535 21.0772 7.30735 21.014 6.19125ZM19.117 14.7411C19.1093 15.4094 18.9882 16.0717 18.7587 16.6995C18.5904 17.1577 18.3202 17.5718 17.9683 17.9104C17.6265 18.2584 17.2129 18.5279 16.7564 18.7001C16.128 18.9294 15.4652 19.0504 14.7962 19.0581C13.7423 19.1107 13.3524 19.1213 10.5808 19.1213C7.8091 19.1213 7.41917 19.1213 6.36531 19.0581C5.6707 19.0711 4.97906 18.9642 4.32082 18.7422C3.88429 18.5612 3.4897 18.2924 3.16158 17.9525C2.81179 17.6143 2.5449 17.1999 2.38172 16.7416C2.12443 16.1048 1.98172 15.4275 1.96018 14.7411C1.96018 13.6881 1.89694 13.2985 1.89694 10.5293C1.89694 7.76012 1.89694 7.37053 1.96018 6.3176C1.9649 5.6343 2.08975 4.95715 2.32903 4.31703C2.51456 3.87259 2.79933 3.47642 3.16158 3.1588C3.48175 2.79677 3.87745 2.50924 4.32082 2.31645C4.9632 2.08485 5.64025 1.9638 6.32316 1.95846C7.37702 1.95846 7.76695 1.89528 10.5386 1.89528C13.3103 1.89528 13.7002 1.89528 14.754 1.95846C15.423 1.96612 16.0858 2.08717 16.7142 2.31645C17.1931 2.49403 17.623 2.78274 17.9683 3.1588C18.3137 3.48224 18.5835 3.87767 18.7587 4.31703C18.9929 4.95819 19.1142 5.63507 19.117 6.3176C19.1697 7.37053 19.1803 7.76012 19.1803 10.5293C19.1803 13.2985 19.1697 13.6881 19.117 14.7411ZM10.5386 5.12778C7.55416 5.1336 5.13896 7.55452 5.14284 10.5363C5.14672 13.5182 7.5682 15.9328 10.5526 15.9309C13.5371 15.9289 15.9554 13.5111 15.9554 10.5293C15.9583 9.09406 15.3881 7.71693 14.3714 6.70303C13.3546 5.68913 11.9751 5.12217 10.5386 5.12778ZM10.5386 14.0356C8.60044 14.0356 7.02924 12.4658 7.02924 10.5293C7.02924 8.59287 8.60044 7.02306 10.5386 7.02306C12.4768 7.02306 14.048 8.59287 14.048 10.5293C14.048 11.4592 13.6782 12.3511 13.0201 13.0086C12.362 13.6662 11.4693 14.0356 10.5386 14.0356Z" fill="#F2F2EF"/>
</svg>
