<svg width="21" height="22" viewBox="0 0 21 22" fill="none" xmlns="http://www.w3.org/2000/svg">
<path fill-rule="evenodd" clip-rule="evenodd" d="M19.4016 0.000217174H1.54917C1.14389 -0.00540661 0.752966 0.150078 0.462431 0.432459C0.171896 0.71484 0.00555163 1.10098 0 1.50591V19.5532C0.00555163 19.9581 0.171896 20.3443 0.462431 20.6266C0.752966 20.909 1.14389 21.0645 1.54917 21.0589H19.4016C19.8069 21.0645 20.1978 20.909 20.4883 20.6266C20.7788 20.3443 20.9452 19.9581 20.9507 19.5532V1.50591C20.9452 1.10098 20.7788 0.71484 20.4883 0.432459C20.1978 0.150078 19.8069 -0.00540661 19.4016 0.000217174ZM6.35478 17.6264H3.1932V8.14999H6.35478V17.6264ZM4.77399 6.82329C3.86602 6.82329 3.12997 6.08789 3.12997 5.18072C3.12997 4.27355 3.86602 3.53814 4.77399 3.53814C5.40579 3.46655 6.02276 3.76304 6.36118 4.30087C6.6996 4.83871 6.6996 5.52273 6.36118 6.06056C6.02276 6.5984 5.40579 6.89488 4.77399 6.82329ZM17.7575 17.6264H14.596V12.5407C14.596 11.2667 14.1428 10.4349 12.9941 10.4349C12.266 10.4402 11.6183 10.8982 11.3712 11.5826C11.2887 11.83 11.2529 12.0907 11.2658 12.3512V17.6159H8.10419C8.10419 17.6159 8.10419 9.00286 8.10419 8.13946H11.2658V9.47668C11.8511 8.46194 12.9503 7.85405 14.1217 7.89728C16.2295 7.89728 17.7575 9.25557 17.7575 12.1722V17.6264Z" fill="#F2F2EF"/>
</svg>
