<svg width="18" height="18" viewBox="0 0 18 18" fill="none" xmlns="http://www.w3.org/2000/svg">
<path d="M8.82113 2.0625H2.8125C2.61359 2.0625 2.42282 2.14152 2.28217 2.28217C2.14152 2.42282 2.0625 2.61359 2.0625 2.8125V15.1875C2.0625 15.3864 2.14152 15.5772 2.28217 15.7178C2.42282 15.8585 2.61359 15.9375 2.8125 15.9375H15.1875C15.3864 15.9375 15.5772 15.8585 15.7178 15.7178C15.8585 15.5772 15.9375 15.3864 15.9375 15.1875V2.8125C15.9375 2.61359 15.8585 2.42282 15.7178 2.28217C15.5772 2.14152 15.3864 2.0625 15.1875 2.0625H13.332" stroke="#97A866" stroke-linecap="round" stroke-linejoin="round"/>
<path d="M13.0463 9.39676L15.9375 8.95126M2.0625 11.0895L9.495 9.94388M6.7155 10.3725L5.313 2.06251M11.0768 1.26263C10.1265 1.26263 9.21526 1.6401 8.54336 2.312C7.87147 2.98389 7.494 3.89518 7.494 4.84538C7.494 7.64963 10.2364 11.0291 10.9466 11.8579C10.9671 11.8818 10.9925 11.9009 11.0211 11.914C11.0497 11.9271 11.0808 11.9337 11.1122 11.9336C11.1437 11.9334 11.1747 11.9264 11.2032 11.913C11.2316 11.8996 11.2568 11.8801 11.277 11.856C11.9753 11.025 14.6595 7.64776 14.6595 4.84576C14.6595 4.37523 14.5669 3.90931 14.3869 3.47458C14.2069 3.03986 13.943 2.64486 13.6103 2.31213C13.2776 1.9794 12.8826 1.71546 12.4479 1.53539C12.0132 1.35532 11.5473 1.26263 11.0768 1.26263ZM11.0768 6.18451C10.812 6.18451 10.5531 6.10599 10.333 5.95889C10.1128 5.81179 9.94123 5.6027 9.83991 5.35808C9.73858 5.11345 9.71207 4.84427 9.76372 4.58458C9.81538 4.32489 9.94288 4.08635 10.1301 3.89912C10.3173 3.71189 10.5559 3.58439 10.8156 3.53273C11.0753 3.48108 11.3444 3.50759 11.5891 3.60892C11.8337 3.71024 12.0428 3.88183 12.1899 4.10199C12.337 4.32215 12.4155 4.58098 12.4155 4.84576C12.4155 5.02157 12.3809 5.19565 12.3136 5.35808C12.2463 5.5205 12.1477 5.66808 12.0234 5.7924C11.8991 5.91671 11.7515 6.01532 11.5891 6.0826C11.4266 6.14988 11.2526 6.18451 11.0768 6.18451Z" stroke="#97A866" stroke-linecap="round" stroke-linejoin="round"/>
</svg>
