<svg width="12" height="16" viewBox="0 0 12 16" fill="none" xmlns="http://www.w3.org/2000/svg">
<path d="M9 0.5H3C2.40326 0.5 1.83097 0.737053 1.40901 1.15901C0.987053 1.58097 0.75 2.15326 0.75 2.75V13.25C0.75 13.8467 0.987053 14.419 1.40901 14.841C1.83097 15.2629 2.40326 15.5 3 15.5H9C9.59674 15.5 10.169 15.2629 10.591 14.841C11.0129 14.419 11.25 13.8467 11.25 13.25V2.75C11.25 2.15326 11.0129 1.58097 10.591 1.15901C10.169 0.737053 9.59674 0.5 9 0.5ZM9.75 13.25C9.75 13.4489 9.67098 13.6397 9.53033 13.7803C9.38968 13.921 9.19891 14 9 14H3C2.80109 14 2.61032 13.921 2.46967 13.7803C2.32902 13.6397 2.25 13.4489 2.25 13.25V12.5H9.75V13.25ZM6 9.5C6.46421 9.5013 6.91665 9.64616 7.2953 9.9147C7.67395 10.1832 7.96026 10.5623 8.115 11H3.885C4.03974 10.5623 4.32605 10.1832 4.7047 9.9147C5.08335 9.64616 5.53579 9.5013 6 9.5ZM5.25 7.25C5.25 7.10166 5.29399 6.95666 5.3764 6.83332C5.45881 6.70999 5.57594 6.61386 5.71299 6.55709C5.85003 6.50032 6.00083 6.48547 6.14632 6.51441C6.2918 6.54335 6.42544 6.61478 6.53033 6.71967C6.63522 6.82456 6.70665 6.9582 6.73559 7.10368C6.76453 7.24917 6.74968 7.39997 6.69291 7.53701C6.63614 7.67406 6.54001 7.79119 6.41668 7.8736C6.29334 7.95601 6.14834 8 6 8C5.80109 8 5.61032 7.92098 5.46967 7.78033C5.32902 7.63968 5.25 7.44891 5.25 7.25ZM9.75 11H9.675C9.56609 10.4801 9.34796 9.98924 9.03506 9.55997C8.72216 9.13071 8.32163 8.77281 7.86 8.51C8.11295 8.13839 8.24879 7.69953 8.25 7.25C8.25 6.65326 8.01295 6.08097 7.59099 5.65901C7.16903 5.23705 6.59674 5 6 5C5.40326 5 4.83097 5.23705 4.40901 5.65901C3.98705 6.08097 3.75 6.65326 3.75 7.25C3.75121 7.69953 3.88705 8.13839 4.14 8.51C3.67837 8.77281 3.27784 9.13071 2.96494 9.55997C2.65204 9.98924 2.43391 10.4801 2.325 11H2.25V2.75C2.25 2.55109 2.32902 2.36032 2.46967 2.21967C2.61032 2.07902 2.80109 2 3 2H9C9.19891 2 9.38968 2.07902 9.53033 2.21967C9.67098 2.36032 9.75 2.55109 9.75 2.75V11ZM6 2.75C5.85166 2.75 5.70666 2.79399 5.58332 2.8764C5.45999 2.95881 5.36386 3.07594 5.30709 3.21299C5.25032 3.35003 5.23547 3.50083 5.26441 3.64632C5.29335 3.7918 5.36478 3.92544 5.46967 4.03033C5.57456 4.13522 5.7082 4.20665 5.85368 4.23559C5.99917 4.26453 6.14997 4.24968 6.28701 4.19291C6.42406 4.13614 6.54119 4.04001 6.6236 3.91668C6.70601 3.79334 6.75 3.64834 6.75 3.5C6.75 3.30109 6.67098 3.11032 6.53033 2.96967C6.38968 2.82902 6.19891 2.75 6 2.75Z" fill="#97A866"/>
</svg>
