<svg width="12" height="14" viewBox="0 0 12 14" fill="none" xmlns="http://www.w3.org/2000/svg">
<path d="M5.99993 13.6666C5.64437 13.6666 5.33881 13.5389 5.08326 13.2833C4.8277 13.0278 4.69993 12.7222 4.69993 12.3666V11H1.24992C0.983258 11 0.783258 10.8833 0.649925 10.65C0.516591 10.4166 0.527703 10.1889 0.683258 9.96665L2.66659 6.99998H2.61659C2.34993 6.99998 2.15259 6.88065 2.02459 6.64198C1.89659 6.40331 1.91059 6.17265 2.06659 5.94998L5.44993 1.11665C5.51659 1.02776 5.59993 0.958424 5.69993 0.908646C5.79993 0.858868 5.89993 0.833757 5.99993 0.833313C6.09993 0.833313 6.19992 0.858424 6.29992 0.908646C6.39992 0.958868 6.48326 1.0282 6.54992 1.11665L9.93326 5.94998C10.0888 6.1722 10.1028 6.40287 9.97526 6.64198C9.8477 6.88109 9.65037 7.00042 9.38326 6.99998H9.33326L11.3166 9.96665C11.4721 10.1889 11.4833 10.4166 11.3499 10.65C11.2166 10.8833 11.0166 11 10.7499 11H7.29992V12.3666C7.29992 12.7222 7.17215 13.0278 6.91659 13.2833C6.66104 13.5389 6.35548 13.6666 5.99993 13.6666ZM2.49992 9.66665H5.16659H3.89993H8.09993H6.83326H9.49993H2.49992ZM2.49992 9.66665H9.49993L6.83326 5.66665H8.09993L5.99993 2.66665L3.89993 5.66665H5.16659L2.49992 9.66665Z" fill="#97A866"/>
</svg>
