<svg width="22" height="18" viewBox="0 0 22 18" fill="none" xmlns="http://www.w3.org/2000/svg">
<path fill-rule="evenodd" clip-rule="evenodd" d="M21.0772 2.06487C20.2851 2.41005 19.4473 2.63823 18.5901 2.74232C19.4945 2.19964 20.1722 1.34592 20.4976 0.339512C19.6477 0.847661 18.7174 1.20568 17.747 1.39802C16.413 -0.0550108 14.27 -0.419162 12.5344 0.512249C10.7988 1.44366 9.90894 3.43533 10.37 5.35682C6.89473 5.18027 3.65765 3.52959 1.46487 0.815839C1.08457 1.48287 0.884736 2.23828 0.885243 3.00694C0.882504 4.45679 1.60251 5.81176 2.80327 6.61644C2.11613 6.59766 1.44367 6.41247 0.843088 6.0766V6.12953C0.853706 8.19147 2.30735 9.96124 4.32083 10.3635C3.94487 10.4785 3.55454 10.5391 3.16158 10.5435C2.88957 10.5403 2.61823 10.5155 2.35011 10.4694C2.92022 12.233 4.54062 13.4399 6.38639 13.4755C4.86589 14.6772 2.98862 15.3331 1.05386 15.3385C0.701592 15.3397 0.349603 15.3185 0 15.275C1.97539 16.5561 4.27742 17.2361 6.62878 17.2332C9.90656 17.2674 13.0605 15.9769 15.3813 13.6518C17.7021 11.3267 18.9951 8.16221 18.9695 4.86991C18.9695 4.68996 18.9695 4.49943 18.9695 4.3089C19.7964 3.68948 20.5097 2.93012 21.0772 2.06487Z" fill="#F2F2EF"/>
</svg>
