<svg width="16" height="14" viewBox="0 0 16 14" fill="none" xmlns="http://www.w3.org/2000/svg">
<path d="M13.9998 7.82804V12.3334H14.6665V13.6667H1.33317V12.3334H1.99984V7.82804C1.58942 7.5541 1.25298 7.18307 1.02038 6.74788C0.787789 6.3127 0.666232 5.82682 0.666504 5.33337C0.666504 4.78204 0.815838 4.25071 1.0885 3.79804L2.8965 0.666707C2.95502 0.565364 3.03917 0.481207 3.14051 0.422695C3.24186 0.364183 3.35682 0.333377 3.47384 0.333374H12.5265C12.6435 0.333377 12.7585 0.364183 12.8598 0.422695C12.9612 0.481207 13.0453 0.565364 13.1038 0.666707L14.9052 3.78804C15.3029 4.44862 15.4307 5.23706 15.2621 5.98947C15.0935 6.74187 14.6414 7.40036 13.9998 7.82804ZM12.6665 8.31471C12.2081 8.36613 11.7441 8.31107 11.3104 8.15381C10.8768 7.99655 10.4854 7.74134 10.1665 7.40804C9.88665 7.70076 9.55037 7.93372 9.17798 8.09287C8.80559 8.25203 8.40481 8.33407 7.99984 8.33404C7.59496 8.33424 7.19424 8.25241 6.82186 8.09349C6.44947 7.93457 6.11315 7.70185 5.83317 7.40937C5.51426 7.74255 5.12275 7.99764 4.68914 8.15478C4.25553 8.31192 3.7915 8.36688 3.33317 8.31537V12.3334H12.6665V8.31471ZM3.85917 1.66671L2.23717 4.47537C2.07956 4.8648 2.07483 5.29939 2.22393 5.69216C2.37303 6.08493 2.66496 6.4069 3.04129 6.59364C3.41763 6.78037 3.8506 6.81809 4.25356 6.69925C4.65652 6.58041 4.99973 6.31377 5.2145 5.95271C5.43784 5.39471 6.22784 5.39471 6.45184 5.95271C6.57537 6.26232 6.78891 6.52777 7.06486 6.71478C7.34081 6.90178 7.66649 7.00174 7.99984 7.00174C8.33318 7.00174 8.65887 6.90178 8.93482 6.71478C9.21077 6.52777 9.42431 6.26232 9.54784 5.95271C9.77117 5.39471 10.5612 5.39471 10.7852 5.95271C10.8717 6.16567 11.0013 6.35844 11.1659 6.51889C11.3305 6.67934 11.5266 6.80401 11.7417 6.88505C11.9568 6.9661 12.1863 7.00177 12.4159 6.98983C12.6454 6.97789 12.87 6.91859 13.0756 6.81566C13.2811 6.71273 13.4631 6.5684 13.6102 6.39173C13.7573 6.21506 13.8662 6.00988 13.9302 5.78909C13.9941 5.5683 14.0117 5.33666 13.9818 5.10874C13.9519 4.88082 13.8752 4.66155 13.7565 4.46471L12.1398 1.66671H3.85917Z" fill="#97A866"/>
</svg>
